HIERARCHY
ROOT Hips
{
 OFFSET 0.000000 0.000000 0.000000
 CHANNELS 6 Xposition Yposition Zposition Yrotation Xrotation Zrotation
 JOINT Chest
 {
  OFFSET 0.000000 9.585900 0.002600
  CHANNELS 3 Yrotation Xrotation Zrotation
  JOINT Chest2
  {
   OFFSET 0.000000 9.601200 -0.005300
   CHANNELS 3 Yrotation Xrotation Zrotation
   JOINT Chest3
   {
    OFFSET 0.000000 9.561800 0.000000
    CHANNELS 3 Yrotation Xrotation Zrotation
    JOINT Chest4
    {
     OFFSET 0.000000 9.552100 0.000000
     CHANNELS 3 Yrotation Xrotation Zrotation
     JOINT Neck
     {
      OFFSET 0.000000 14.453000 0.000000
      CHANNELS 3 Yrotation Xrotation Zrotation
      JOINT Head
      {
       OFFSET 0.000000 8.936500 -0.011300
       CHANNELS 3 Yrotation Xrotation Zrotation
       End Site
       {
        OFFSET 0.000000 17.073600 -0.006000
       }
      }
     }
     JOINT RightCollar
     {
      OFFSET -2.921100 9.558500 0.000000
      CHANNELS 3 Yrotation Xrotation Zrotation
      JOINT RightShoulder
      {
       OFFSET -13.519700 0.000000 0.000000
       CHANNELS 3 Yrotation Xrotation Zrotation
       JOINT RightElbow
       {
        OFFSET 0.000000 -29.696600 0.000000
        CHANNELS 3 Yrotation Xrotation Zrotation
        JOINT RightWrist
        {
         OFFSET 0.000000 -24.004700 0.000000
         CHANNELS 3 Yrotation Xrotation Zrotation
         End Site
         {
          OFFSET 0.000000 -17.728500 0.000000
         }
        }
       }
      }
     }
     JOINT LeftCollar
     {
      OFFSET 2.921100 9.558500 0.000000
      CHANNELS 3 Yrotation Xrotation Zrotation
      JOINT LeftShoulder
      {
       OFFSET 13.519700 0.000000 0.000000
       CHANNELS 3 Yrotation Xrotation Zrotation
       JOINT LeftElbow
       {
        OFFSET 0.000000 -29.696600 0.000000
        CHANNELS 3 Yrotation Xrotation Zrotation
        JOINT LeftWrist
        {
         OFFSET 0.000000 -24.004700 0.000000
         CHANNELS 3 Yrotation Xrotation Zrotation
         End Site
         {
          OFFSET 0.000000 -17.728500 0.000000
         }
        }
       }
      }
     }
    }
   }
  }
 }
 JOINT RightHip
 {
  OFFSET -7.771700 -0.012900 -0.001300
  CHANNELS 3 Yrotation Xrotation Zrotation
  JOINT RightKnee
  {
   OFFSET 0.000000 -40.869800 0.001200
   CHANNELS 3 Yrotation Xrotation Zrotation
   JOINT RightAnkle
   {
    OFFSET 0.000000 -39.717900 0.002100
    CHANNELS 3 Yrotation Xrotation Zrotation
    JOINT RightToe
    {
     OFFSET 0.000000 -4.965400 11.033500
     CHANNELS 3 Yrotation Xrotation Zrotation
     End Site
     {
      OFFSET 0.000000 -1.423100 5.872300
     }
    }
   }
  }
 }
 JOINT LeftHip
 {
  OFFSET 7.771700 -0.012900 -0.001300
  CHANNELS 3 Yrotation Xrotation Zrotation
  JOINT LeftKnee
  {
   OFFSET 0.000000 -40.869800 0.001200
   CHANNELS 3 Yrotation Xrotation Zrotation
   JOINT LeftAnkle
   {
    OFFSET 0.000000 -39.717900 0.002100
    CHANNELS 3 Yrotation Xrotation Zrotation
    JOINT LeftToe
    {
     OFFSET 0.000000 -4.965400 11.033500
     CHANNELS 3 Yrotation Xrotation Zrotation
     End Site
     {
      OFFSET 0.000000 -1.423100 5.872300
     }
    }
   }
  }
 }
}
MOTION
Frames: 11
Frame Time: 0.008333
-61.082269 57.776228 11.597945 176.691055 -49.354984 -3.187705 3.411346 21.582125 2.907439 1.757471 12.351197 1.494394 2.272044 15.427355 1.917235 1.753366 12.353622 1.520891 -1.453925 11.669131 -0.842371 -2.446356 -14.118954 -0.908002 4.952848 3.926752 1.012661 0.990049 -28.980511 -8.689390 1.365974 -60.540075 24.483182 17.813283 14.106998 -10.960362 -11.697550 0.930692 -0.687286 -4.806549 -29.109553 8.832284 -20.127048 -54.514463 -3.468173 -11.897718 4.051245 5.261664 6.111816 -22.454129 -1.399794 -33.284816 75.157382 -37.271240 7.276033 -17.302592 12.561691 -0.015520 -0.053330 -0.004597 -6.274585 -19.543128 6.298480 87.941909 80.815683 88.271742 0.883501 -22.030572 -19.149866 0.040207 0.038398 0.020045
-61.081405 57.778189 11.600060 176.719356 -49.363852 -3.210534 3.426300 21.582316 2.891787 1.749397 12.353819 1.503934 2.266708 15.429318 1.934868 1.761298 12.349816 1.489853 -1.486434 11.653449 -0.944314 -2.473672 -14.161303 -1.085314 4.946723 3.989330 1.052034 0.949818 -28.882589 -8.726797 -0.513181 -60.709258 26.427657 17.066396 13.711456 -11.357692 -11.671751 1.088612 -0.667988 -4.743748 -29.158775 8.834261 -18.426162 -55.177006 -5.327689 -11.102399 4.187478 5.682361 6.112812 -22.434472 -1.410444 -33.255532 75.149670 -37.224854 7.293255 -17.305462 12.562936 -0.034995 -0.050406 -0.009852 -6.315520 -19.531729 6.307682 87.924781 80.817120 88.241818 0.880440 -22.024958 -19.159405 0.043976 0.038254 0.023277
-61.081367 57.780166 11.602376 176.726761 -49.369966 -3.211161 3.430082 21.585071 2.880749 1.760880 12.354043 1.495245 2.273808 15.430466 1.929468 1.767067 12.350747 1.485402 -1.524988 11.631383 -1.044812 -2.500085 -14.214395 -1.262693 4.935036 4.046219 1.092016 0.930565 -28.763939 -8.782149 -2.441291 -60.923628 28.462227 16.300699 13.249377 -11.746924 -11.651876 1.256499 -0.646983 -4.728176 -29.217874 8.865630 -16.480664 -55.850589 -7.374574 -10.287101 4.270736 6.053288 6.127929 -22.420645 -1.425746 -33.240457 75.141802 -37.195972 7.298765 -17.303595 12.567318 -0.039691 -0.049154 -0.012523 -6.340406 -19.524019 6.311320 87.905224 80.820609 88.206838 0.871372 -22.017116 -19.158753 0.051382 0.034083 0.021963
-61.079838 57.782855 11.604554 176.735703 -49.377375 -3.220679 3.439283 21.589228 2.877599 1.765017 12.354887 1.488376 2.281080 15.433872 1.922634 1.772905 12.353617 1.479844 -1.559215 11.605903 -1.145383 -2.523883 -14.279548 -1.441177 4.938201 4.286195 1.125919 0.899797 -28.817740 -8.840167 -4.561022 -61.146707 30.741149 15.585671 12.739263 -12.142651 -11.628818 1.433517 -0.631608 -4.746869 -29.286030 8.925700 -14.340089 -56.508637 -9.580686 -9.441696 4.277951 6.359370 6.136709 -22.399554 -1.425441 -33.230619 75.123914 -37.174507 7.303641 -17.310631 12.578129 -0.043330 -0.039039 -0.019792 -6.385569 -19.509812 6.329215 87.882550 80.827919 88.154248 0.871374 -22.010657 -19.164728 0.057401 0.032870 0.023683
-61.078804 57.787031 11.605569 176.739347 -49.393631 -3.222401 3.452338 21.603537 2.871783 1.769521 12.357621 1.482505 2.288741 15.440231 1.915755 1.779240 12.358610 1.474062 -1.580222 11.582053 -1.173575 -2.541291 -14.369401 -1.691633 4.931702 4.457831 1.159971 0.856620 -28.807060 -8.891901 -6.907066 -61.356284 33.299123 14.939593 12.194025 -12.546626 -11.611251 1.610454 -0.626086 -4.782460 -29.357668 9.010905 -12.064577 -57.147640 -11.921828 -8.569378 4.227473 6.609088 6.140931 -22.374066 -1.423791 -33.223332 75.112628 -37.163003 7.299314 -17.311973 12.586292 -0.043995 -0.035542 -0.024058 -6.443044 -19.482181 6.343772 87.878274 80.834880 88.102257 0.879960 -22.008147 -19.170582 0.060064 0.033325 0.023542
-61.078717 57.790617 11.607115 176.756732 -49.401887 -3.229728 3.443503 21.612785 2.864809 1.793936 12.388972 1.456206 2.296974 15.449772 1.908642 1.787630 12.391509 1.456892 -1.620787 11.493683 -1.274553 -2.556237 -14.464826 -1.841936 4.919948 4.535571 1.218178 0.805119 -28.767042 -8.937458 -9.361434 -61.570932 36.028131 14.285390 11.619352 -12.965684 -11.599254 1.733543 -0.594613 -4.822950 -29.421707 9.112705 -9.662268 -57.765890 -14.399457 -7.714394 4.147270 6.800329 6.132813 -22.357361 -1.428313 -33.210241 75.104524 -37.150199 7.296792 -17.311591 12.591427 -0.045393 -0.034477 -0.026440 -6.459865 -19.472171 6.337690 87.815308 80.829390 88.037995 0.878143 -21.994965 -19.176417 0.064303 0.030890 0.025347
-61.078481 57.794323 11.608648 176.757675 -49.408889 -3.227212 3.451939 21.628442 2.858894 1.796662 12.414592 1.447365 2.295683 15.422529 1.920187 1.789926 12.412234 1.447567 -1.656255 11.466917 -1.430286 -2.564426 -14.583354 -1.992696 4.915480 4.676364 1.223133 0.764910 -28.730884 -8.979802 -11.928796 -61.776214 38.936576 13.587852 11.017936 -13.410903 -11.578803 1.895491 -0.639808 -4.858339 -29.472857 9.220171 -7.078492 -58.344133 -17.052907 -6.956471 4.050925 6.934567 6.133038 -22.343286 -1.432235 -33.152936 75.100156 -37.092344 7.289796 -17.307552 12.591351 -0.045828 -0.033369 -0.026694 -6.489858 -19.460202 6.344722 87.806967 80.828177 88.001259 0.873867 -21.988234 -19.169130 0.066642 0.027737 0.018506
-61.078933 57.798127 11.609977 176.759089 -49.414479 -3.223532 3.468979 21.685086 2.839523 1.797734 12.411437 1.450660 2.297998 15.427980 1.914176 1.791964 12.391817 1.457065 -1.678982 11.449241 -1.550953 -2.566794 -14.724032 -2.171073 4.911333 4.819050 1.220653 0.748355 -28.694735 -9.022018 -14.748950 -61.911503 42.143049 12.882735 10.392781 -13.869835 -11.568868 2.054572 -0.690722 -4.869313 -29.513609 9.317234 -4.266833 -58.861430 -19.928731 -6.354841 3.941899 7.046660 6.137248 -22.331179 -1.440513 -33.125938 75.095668 -37.060081 7.288550 -17.306302 12.589565 -0.036146 -0.034899 -0.024091 -6.520866 -19.450982 6.351527 87.808501 80.827705 87.972060 0.870459 -21.980238 -19.166336 0.063507 0.024840 0.021365
-61.079107 57.801243 11.611826 176.761793 -49.412229 -3.225828 3.477031 21.709614 2.834201 1.807202 12.447710 1.440948 2.315672 15.512105 1.885858 1.802765 12.428978 1.445406 -1.699153 11.296551 -1.614750 -2.567645 -14.880462 -2.341079 4.897074 4.813348 1.246724 0.746189 -28.658687 -9.059785 -17.871169 -61.913515 45.691889 12.200394 9.735497 -14.317331 -11.583211 2.079248 -0.665216 -4.845388 -29.545654 9.396199 -1.264188 -59.318476 -23.018885 -5.894743 3.829336 7.173199 6.138458 -22.329835 -1.443989 -33.104932 75.092626 -37.036079 7.302698 -17.307078 12.585323 -0.045881 -0.035585 -0.023104 -6.548953 -19.450984 6.357215 87.813925 80.824611 87.958549 0.875639 -21.971342 -19.169239 0.059806 0.021139 0.018914
-61.080301 57.804805 11.612954 176.756864 -49.411973 -3.219160 3.482534 21.718925 2.829325 1.821942 12.514056 1.423790 2.329571 15.569623 1.869380 1.812132 12.462065 1.435707 -1.719734 11.177478 -1.691444 -2.567382 -15.047097 -2.500650 4.875883 4.833590 1.254916 0.737018 -28.624480 -9.080995 -21.184476 -61.749933 49.507654 11.535083 9.031505 -14.744353 -11.604617 2.120643 -0.660604 -4.804835 -29.562363 9.463005 1.842238 -59.736682 -26.249799 -5.501671 3.724901 7.315315 6.147616 -22.327474 -1.452228 -33.071578 75.091615 -36.998701 7.311196 -17.302627 12.587617 -0.055726 -0.039335 -0.027898 -6.563756 -19.445122 6.354930 87.776589 80.816024 87.907721 0.874407 -21.966076 -19.169944 0.059170 0.020873 0.015951
-61.082487 57.808542 11.613532 176.753606 -49.411351 -3.210406 3.498515 21.768814 2.816167 1.827339 12.545973 1.412072 2.339347 15.605751 1.857736 1.820083 12.490987 1.426135 -1.737318 11.087627 -1.772240 -2.565331 -15.214450 -2.647853 4.850288 4.877480 1.256780 0.688924 -28.595538 -9.070622 -24.522064 -61.426311 53.469581 10.862805 8.282264 -15.140637 -11.624460 2.178156 -0.666890 -4.785525 -29.555771 9.528002 4.996534 -60.137736 -29.549221 -5.091800 3.631658 7.452959 6.159773 -22.323826 -1.468758 -33.031665 75.095353 -36.951589 7.312486 -17.301126 12.588504 -0.037059 -0.043930 -0.025143 -6.575197 -19.438962 6.347918 87.747430 80.810163 87.867611 0.877771 -21.964246 -19.173939 0.061251 0.022136 0.019193
